REM DIRINDEX 1\2,1\3,1\4,1\5
REM DIRNAME "folder01","folder02","folder03","folder04","folder05"
TITLE ""
FILE "P1Q_t_0040-0049.mp3" MP3
  TRACK 01 AUDIO
    TITLE "3:cjc173_1028"
    INDEX 01 00:00:00
  TRACK 02 AUDIO
    TITLE "0:"
    INDEX 01 00:01:22
  TRACK 03 AUDIO
    TITLE "4:cjc173_1029"
    INDEX 01 00:01:43
  TRACK 04 AUDIO
    TITLE "0:"
    INDEX 01 00:03:54
  TRACK 05 AUDIO
    TITLE "5:cjc173_1030"
    INDEX 01 00:03:73
  TRACK 06 AUDIO
    TITLE "0:"
    INDEX 01 00:08:53
  TRACK 07 AUDIO
    TITLE "3:cjc173_1031"
    INDEX 01 00:09:23
  TRACK 08 AUDIO
    TITLE "0:"
    INDEX 01 00:10:32
  TRACK 09 AUDIO
    TITLE "4:cjc173_1032"
    INDEX 01 00:10:54
  TRACK 10 AUDIO
    TITLE "0:"
    INDEX 01 00:12:57
  TRACK 11 AUDIO
    TITLE "5:cjc173_1033"
    INDEX 01 00:13:01
  TRACK 12 AUDIO
    TITLE "0:"
    INDEX 01 00:19:39
  TRACK 13 AUDIO
    TITLE "3:cjc173_1034"
    INDEX 01 00:20:09
  TRACK 14 AUDIO
    TITLE "0:"
    INDEX 01 00:21:30
  TRACK 15 AUDIO
    TITLE "4:cjc173_1035"
    INDEX 01 00:21:44
  TRACK 16 AUDIO
    TITLE "0:"
    INDEX 01 00:24:48
  TRACK 17 AUDIO
    TITLE "5:cjc173_1036"
    INDEX 01 00:24:72
  TRACK 18 AUDIO
    TITLE "0:"
    INDEX 01 00:28:32
  TRACK 19 AUDIO
    TITLE "3:cjc173_1037"
    INDEX 01 00:29:02
  TRACK 20 AUDIO
    TITLE "0:"
    INDEX 01 00:30:21
  TRACK 21 AUDIO
    TITLE "4:cjc173_1038"
    INDEX 01 00:30:39
  TRACK 22 AUDIO
    TITLE "0:"
    INDEX 01 00:33:49
  TRACK 23 AUDIO
    TITLE "5:cjc173_1039"
    INDEX 01 00:33:70
  TRACK 24 AUDIO
    TITLE "0:"
    INDEX 01 00:39:20
  TRACK 25 AUDIO
    TITLE "3:cjc173_1040"
    INDEX 01 00:39:67
  TRACK 26 AUDIO
    TITLE "0:"
    INDEX 01 00:40:73
  TRACK 27 AUDIO
    TITLE "4:cjc173_1041"
    INDEX 01 00:41:17
  TRACK 28 AUDIO
    TITLE "0:"
    INDEX 01 00:44:62
  TRACK 29 AUDIO
    TITLE "5:cjc173_1042"
    INDEX 01 00:45:09
  TRACK 30 AUDIO
    TITLE "0:"
    INDEX 01 00:50:02
  TRACK 31 AUDIO
    TITLE "3:cjc173_1043"
    INDEX 01 00:50:51
  TRACK 32 AUDIO
    TITLE "0:"
    INDEX 01 00:51:61
  TRACK 33 AUDIO
    TITLE "4:cjc173_1044"
    INDEX 01 00:52:07
  TRACK 34 AUDIO
    TITLE "0:"
    INDEX 01 00:55:35
  TRACK 35 AUDIO
    TITLE "5:cjc173_1045"
    INDEX 01 00:55:54
  TRACK 36 AUDIO
    TITLE "0:"
    INDEX 01 01:01:16
  TRACK 37 AUDIO
    TITLE "3:cjc173_1046"
    INDEX 01 01:01:61
  TRACK 38 AUDIO
    TITLE "0:"
    INDEX 01 01:02:72
  TRACK 39 AUDIO
    TITLE "4:cjc173_1047"
    INDEX 01 01:03:19
  TRACK 40 AUDIO
    TITLE "0:"
    INDEX 01 01:06:60
  TRACK 41 AUDIO
    TITLE "5:cjc173_1048"
    INDEX 01 01:07:05
  TRACK 42 AUDIO
    TITLE "0:"
    INDEX 01 01:12:47
  TRACK 43 AUDIO
    TITLE "3:cjc173_1049"
    INDEX 01 01:13:19
  TRACK 44 AUDIO
    TITLE "0:"
    INDEX 01 01:14:28
  TRACK 45 AUDIO
    TITLE "4:cjc173_1050"
    INDEX 01 01:14:50
  TRACK 46 AUDIO
    TITLE "0:"
    INDEX 01 01:18:50
  TRACK 47 AUDIO
    TITLE "5:cjc173_1051"
    INDEX 01 01:18:71
  TRACK 48 AUDIO
    TITLE "0:"
    INDEX 01 01:23:12
  TRACK 49 AUDIO
    TITLE "3:cjc173_1052"
    INDEX 01 01:23:57
  TRACK 50 AUDIO
    TITLE "0:"
    INDEX 01 01:24:66
  TRACK 51 AUDIO
    TITLE "4:cjc173_1053"
    INDEX 01 01:25:12
  TRACK 52 AUDIO
    TITLE "0:"
    INDEX 01 01:28:32
  TRACK 53 AUDIO
    TITLE "5:cjc173_1054"
    INDEX 01 01:28:54
  TRACK 54 AUDIO
    TITLE "0:"
    INDEX 01 01:33:35
  TRACK 55 AUDIO
    TITLE "3:cjc173_1055"
    INDEX 01 01:34:07
  TRACK 56 AUDIO
    TITLE "0:"
    INDEX 01 01:35:21
  TRACK 57 AUDIO
    TITLE "4:cjc173_1056"
    INDEX 01 01:35:42
  TRACK 58 AUDIO
    TITLE "0:"
    INDEX 01 01:37:45
  TRACK 59 AUDIO
    TITLE "5:cjc173_1057"
    INDEX 01 01:37:65
  TRACK 60 AUDIO
    TITLE "0:"
    INDEX 01 01:42:44
